<?xml version="1.0" standalone="no"?>
<!DOCTYPE svg PUBLIC "-//W3C//DTD SVG 20010904//EN"
 "http://www.w3.org/TR/2001/REC-SVG-20010904/DTD/svg10.dtd">
<svg version="1.0" xmlns="http://www.w3.org/2000/svg"
 width="512.000000pt" height="512.000000pt" viewBox="0 0 512.000000 512.000000"
 preserveAspectRatio="xMidYMid meet">
<metadata>
Created by potrace 1.11, written by Peter Selinger 2001-2013
</metadata>
<g transform="translate(0.000000,512.000000) scale(0.100000,-0.100000)"
fill="#000000" stroke="none">
<path d="M2330 5113 c-397 -21 -710 -68 -1005 -149 -413 -114 -702 -284 -857
-504 -536 -757 -627 -2713 -170 -3625 123 -247 260 -383 508 -509 809 -408
2438 -435 3381 -57 163 65 339 175 430 267 259 264 428 784 483 1483 14 176
14 649 0 826 -55 708 -218 1294 -450 1617 -197 274 -624 479 -1210 582 -341
60 -781 87 -1110 69z m532 -1225 c26 -56 1148 -2676 1148 -2682 0 -3 -143 -6
-318 -6 l-318 0 -126 293 -127 292 -568 2 -568 3 -126 -293 -126 -292 -322 -3
c-197 -1 -321 1 -319 7 1 5 264 617 583 1360 l580 1351 296 0 295 0 16 -32z"/>
<path d="M2392 2708 c-89 -209 -161 -383 -159 -385 2 -2 155 -2 339 -1 l335 3
-171 382 c-94 211 -173 383 -176 383 -3 0 -78 -172 -168 -382z"/>
</g>
</svg>
